<?xml version="1.0" encoding="utf-8"?>
<!-- Generator: Adobe Illustrator 24.0.1, SVG Export Plug-In . SVG Version: 6.00 Build 0)  -->
<svg version="1.1" id="Layer_1" xmlns="http://www.w3.org/2000/svg" xmlns:xlink="http://www.w3.org/1999/xlink" x="0px" y="0px"
	 viewBox="0 0 1569.4 2186" style="enable-background:new 0 0 1569.4 2186;" xml:space="preserve">
<style type="text/css">
	.st0{fill:#222222;}
	.st1{fill:#FFFFFF;}
</style>
<rect y="0" class="st0" width="1568" height="2186"/>
<g>
	<path class="st1" d="M300,1409c-8.2,0-12.4-12-12.4-36V754.9c0-5.4-0.7-9.3-2.1-11.8c-1.4-2.5-3.2-3.4-5.4-2.7
		c-30.8,7.9-46.4,11.8-46.8,11.8c-3.9,0.7-7-0.4-9.1-3.2c-1.8-3.2-2.7-9-2.7-17.2v-41.4c0-11.5,4.1-18.1,12.4-19.9l122.5-32.2
		c3.6-0.7,5.9-1.1,7-1.1c7.2,0,10.7,7.5,10.7,22.6V1373c0,24-4.3,36-12.9,36H300z M568.7,1409c-8.2,0-12.4-12-12.4-36V754.9
		c0-5.4-0.7-9.3-2.1-11.8c-1.4-2.5-3.2-3.4-5.4-2.7c-30.8,7.9-46.4,11.8-46.8,11.8c-3.9,0.7-7-0.4-9.1-3.2c-1.8-3.2-2.7-9-2.7-17.2
		v-41.4c0-11.5,4.1-18.1,12.4-19.9l122.5-32.2c3.6-0.7,5.9-1.1,7-1.1c7.2,0,10.7,7.5,10.7,22.6V1373c0,24-4.3,36-12.9,36H568.7z
		 M926.7,1410.1c-13.3,0-24.9-1.1-34.9-3.2c-10-2.5-20.1-7.3-30.1-14.5c-9.7-7.2-17.7-16.8-24.2-29c-6.1-12.5-11.1-29-15-49.4
		c-3.6-20.8-5.4-45.3-5.4-73.6V945.7c0-6.4-2-9.7-5.9-9.7h-34.4c-8.6,0-12.9-7.9-12.9-23.6V892c0-15.8,4.3-23.6,12.9-23.6h34.4
		c3.6,0,5.6-4.8,5.9-14.5l9.1-190.3c0.4-18.3,4.8-27.4,13.4-27.4h37.6c4.3,0,7.5,2,9.7,5.9c2.1,3.6,3.2,10.7,3.2,21.5v190.3
		c0,9.7,2.1,14.5,6.4,14.5h69.3c4.3,0,7.5,1.6,9.7,4.8c2.1,3.2,3.2,9.5,3.2,18.8v20.4c0,9.3-1.1,15.6-3.2,18.8
		c-2.1,3.2-5.4,4.8-9.7,4.8h-69.3c-2.5,0-4.3,0.5-5.4,1.6c-0.7,1.1-1.1,3.8-1.1,8.1v294.5c0,30.1,2.5,53.4,7.5,69.9
		c5.4,16.5,11.3,26.9,17.7,31.2c6.8,3.9,15.4,5.9,25.8,5.9h37.1c9.7,0,14.5,5.4,14.5,16.1v28.5c0,12.2-5.2,18.3-15.6,18.3H926.7z
		 M1137.4,1485.3c9.7,0,18.6-8.2,26.9-24.7c8.6-16.5,12.9-36.5,12.9-60.2c0-9.3-3.6-29-10.7-59.1l-112.9-441.3
		c-0.7-5-1.1-9-1.1-11.8c0-13.3,2.7-19.9,8.1-19.9h51.1c9.7,0,15.9,9,18.8,26.9l81.2,367.6c1.4,3.9,2.3,5.9,2.7,5.9
		c1.4,0,2.1-2,2.1-5.9l66.6-366c2.5-19,8.4-28.5,17.7-28.5h36.5c6.1,0,9.1,7.2,9.1,21.5c0,0.7-0.5,4.8-1.6,12.4l-96.7,499.3
		c-10,55.5-22.8,93.9-38.2,115c-15,21.1-35.1,32.2-60.2,33.3h-7c-28.7,0-47.3-7.2-55.9-21.5c-1.8-3.2-2.7-9.7-2.7-19.3
		c0-22.2,3.9-33.3,11.8-33.3c1.1,0,7.2,1.6,18.3,4.8S1133.1,1485.3,1137.4,1485.3z"/>
	<path class="st1" d="M280.1,740.4l5.3,20.8l0.7-0.2l0.7-0.2L280.1,740.4z M233.4,752.3v-21.5h-1.9l-1.9,0.3L233.4,752.3z
		 M224.2,749l-18.8,10.4l0.7,1.3l0.9,1.2L224.2,749z M233.9,670.6l4.6,21l0.5-0.1l0.4-0.1L233.9,670.6z M356.5,638.3l-4.2-21.1
		l-0.6,0.1l-0.6,0.2L356.5,638.3z M300,1387.5c3.8,0,7.3,1.6,9.6,3.8c1.8,1.7,1.9,2.9,1.5,1.7c-0.9-2.6-1.9-8.7-1.9-20h-43
		c0,12.7,1,24.5,4.3,34c3.1,9.2,11.6,23.5,29.6,23.5V1387.5z M309.2,1373V754.9h-43V1373H309.2z M309.2,754.9c0-6.4-0.7-15-5-22.5
		l-37.3,21.3c-0.5-0.8-0.7-1.4-0.8-1.7c-0.1-0.3-0.1-0.4-0.1-0.3c0,0.2,0.1,0.5,0.1,1c0,0.5,0.1,1.2,0.1,2.1H309.2z M304.2,732.4
		c-1.9-3.4-5.4-8.1-11.5-11.1c-6.7-3.3-13.7-3.2-19.4-1.3l13.6,40.8c-3.6,1.2-8.6,1.4-13.5-1c-4.2-2.1-6.1-5.1-6.6-6L304.2,732.4z
		 M274.8,719.6c-15.4,3.9-27,6.9-34.7,8.9c-3.9,1-6.8,1.7-8.7,2.2c-1,0.2-1.7,0.4-2.1,0.5c-0.2,0.1-0.3,0.1-0.2,0.1
		c0,0,0.2,0,0.4-0.1c0.1,0,0.4-0.1,0.8-0.1c0,0,1.4-0.2,3.1-0.2v43c1.7,0,3.1-0.2,3.2-0.2c0.4-0.1,0.7-0.1,0.9-0.1
		c0.3-0.1,0.6-0.1,0.8-0.2c0.3-0.1,0.7-0.2,1-0.2c0.6-0.1,1.5-0.4,2.5-0.6c2.1-0.5,5-1.3,8.9-2.2c7.8-2,19.4-4.9,34.9-8.9
		L274.8,719.6z M229.5,731.1c0.8-0.2,3-0.4,5.8,0.6c2.9,1,5,2.8,6.1,4.4L207,761.9c3.3,4.4,8,8.2,13.9,10.3c5.8,2,11.5,2,16.2,1.1
		L229.5,731.1z M243,738.6c0.2,0.4,0.4,0.8,0.5,1c0.1,0.2,0.1,0.4,0.1,0.4c0,0-0.1-0.3-0.2-1c-0.2-1.4-0.4-3.7-0.4-7.2h-43
		c0,8.4,0.7,19.2,5.4,27.6L243,738.6z M243.1,731.8v-41.4h-43v41.4H243.1z M243.1,690.4c0-1.6,0.1-2.5,0.2-2.9
		c0.1-0.4,0.1,0-0.4,0.7c-0.5,0.8-1.3,1.6-2.3,2.4c-1,0.7-1.8,0.9-2.1,1l-9.1-42c-9.3,2-17.6,7.3-23,16c-4.9,8-6.3,16.9-6.3,24.9
		H243.1z M239.4,691.3l122.5-32.2L351,617.5l-122.5,32.2L239.4,691.3z M360.7,659.4c1.6-0.3,2.8-0.5,3.5-0.6
		c0.4-0.1,0.5-0.1,0.5-0.1c0,0-0.1,0-0.3,0c-0.2,0-0.5,0-0.9,0v-43c-3.6,0-8.2,0.9-11.2,1.5L360.7,659.4z M363.4,658.7
		c-2.2,0-5-0.7-7.6-2.5c-2.4-1.7-3.4-3.6-3.7-4.1c-0.2-0.5,0-0.3,0.2,1.2c0.2,1.4,0.4,3.5,0.4,6.5h43c0-8.5-0.9-18.1-4.8-26.2
		c-2.1-4.3-5.3-9-10.4-12.6c-5.3-3.7-11.3-5.3-17-5.3V658.7z M352.7,659.8V1373h43V659.8H352.7z M352.7,1373c0,5.4-0.2,9.8-0.7,13.2
		c-0.4,3.5-1,5.6-1.3,6.6c-0.4,1.1-0.2-0.1,1.6-1.7c2.3-2.1,5.6-3.5,9-3.5v43c7.7,0,14.8-2.9,20.3-8c5-4.7,7.9-10.4,9.6-15.2
		c3.4-9.6,4.5-21.6,4.5-34.3H352.7z M361.3,1387.5H300v43h61.3V1387.5z M548.9,740.4l5.3,20.8l0.7-0.2l0.7-0.2L548.9,740.4z
		 M502.1,752.3v-21.5h-1.9l-1.9,0.3L502.1,752.3z M493,749l-18.8,10.4l0.7,1.3l0.9,1.2L493,749z M502.6,670.6l4.6,21l0.5-0.1
		l0.4-0.1L502.6,670.6z M625.2,638.3l-4.2-21.1l-0.6,0.1l-0.6,0.2L625.2,638.3z M568.7,1387.5c3.8,0,7.3,1.6,9.6,3.8
		c1.8,1.7,1.9,2.9,1.5,1.7c-0.9-2.6-1.9-8.7-1.9-20h-43c0,12.7,1,24.5,4.3,34c3.1,9.2,11.6,23.5,29.6,23.5V1387.5z M577.9,1373
		V754.9h-43V1373H577.9z M577.9,754.9c0-6.4-0.7-15-5-22.5l-37.3,21.3c-0.5-0.8-0.7-1.4-0.8-1.7c-0.1-0.3-0.1-0.4-0.1-0.3
		c0,0.2,0.1,0.5,0.1,1c0,0.5,0.1,1.2,0.1,2.1H577.9z M572.9,732.4c-1.9-3.4-5.4-8.1-11.5-11.1c-6.7-3.3-13.7-3.2-19.4-1.3l13.6,40.8
		c-3.6,1.2-8.6,1.4-13.5-1c-4.2-2.1-6.1-5.1-6.6-6L572.9,732.4z M543.5,719.6c-15.4,3.9-27,6.9-34.7,8.9c-3.9,1-6.8,1.7-8.7,2.2
		c-1,0.2-1.7,0.4-2.1,0.5c-0.2,0.1-0.3,0.1-0.2,0.1c0,0,0.2,0,0.4-0.1c0.1,0,0.4-0.1,0.8-0.1c0,0,1.4-0.2,3.1-0.2v43
		c1.7,0,3.1-0.2,3.2-0.2c0.4-0.1,0.7-0.1,0.9-0.1c0.3-0.1,0.6-0.1,0.8-0.2c0.3-0.1,0.7-0.2,1-0.2c0.6-0.1,1.5-0.4,2.5-0.6
		c2.1-0.5,5-1.3,8.9-2.2c7.8-2,19.4-4.9,34.9-8.9L543.5,719.6z M498.3,731.1c0.8-0.2,3-0.4,5.8,0.6c2.9,1,5,2.8,6.1,4.4l-34.4,25.8
		c3.3,4.4,8,8.2,13.9,10.3c5.8,2,11.5,2,16.2,1.1L498.3,731.1z M511.8,738.6c0.2,0.4,0.4,0.8,0.5,1c0.1,0.2,0.1,0.4,0.1,0.4
		c0,0-0.1-0.3-0.2-1c-0.2-1.4-0.4-3.7-0.4-7.2h-43c0,8.4,0.7,19.2,5.4,27.6L511.8,738.6z M511.8,731.8v-41.4h-43v41.4H511.8z
		 M511.8,690.4c0-1.6,0.2-2.5,0.2-2.9c0.1-0.4,0.1,0-0.4,0.7c-0.5,0.8-1.3,1.6-2.3,2.4c-1,0.7-1.8,0.9-2.1,1l-9.1-42
		c-9.3,2-17.6,7.3-23,16c-5,8-6.3,16.9-6.3,24.9H511.8z M508.1,691.3l122.5-32.2l-10.9-41.6l-122.5,32.2L508.1,691.3z M629.4,659.4
		c1.6-0.3,2.8-0.5,3.5-0.6c0.4-0.1,0.5-0.1,0.5-0.1c0,0-0.1,0-0.3,0c-0.2,0-0.5,0-0.9,0v-43c-3.6,0-8.2,0.9-11.2,1.5L629.4,659.4z
		 M632.2,658.7c-2.2,0-5-0.7-7.6-2.5c-2.4-1.7-3.4-3.6-3.7-4.1c-0.2-0.5,0-0.3,0.2,1.2c0.2,1.4,0.4,3.5,0.4,6.5h43
		c0-8.5-0.9-18.1-4.8-26.2c-2.1-4.3-5.3-9-10.4-12.6c-5.3-3.7-11.3-5.3-17-5.3V658.7z M621.4,659.8V1373h43V659.8H621.4z
		 M621.4,1373c0,5.4-0.2,9.8-0.7,13.2c-0.4,3.5-1,5.6-1.3,6.6c-0.4,1.1-0.2-0.1,1.6-1.7c2.3-2.1,5.6-3.5,9-3.5v43
		c7.7,0,14.8-2.9,20.3-8c5-4.7,7.9-10.4,9.6-15.2c3.4-9.6,4.5-21.6,4.5-34.3H621.4z M630,1387.5h-61.3v43H630V1387.5z M891.8,1406.9
		l-5.2,20.9l0.4,0.1l0.4,0.1L891.8,1406.9z M861.7,1392.4l-12.8,17.3l0.1,0.1l0.2,0.1L861.7,1392.4z M837.5,1363.3l-19.3,9.4
		l0.2,0.3l0.2,0.3L837.5,1363.3z M822.4,1313.9l-21.2,3.7l0,0.2l0,0.2L822.4,1313.9z M817.1,853.8l-21.5-1l0,0.1l0,0.1L817.1,853.8z
		 M826.2,663.6l21.5,1l0-0.3l0-0.3L826.2,663.6z M886.9,642.1L868,652.4l0.2,0.4l0.2,0.4L886.9,642.1z M891.2,937.7L876,922.5
		l-1.5,1.5l-1.2,1.8L891.2,937.7z M897.7,1310.1l-20.6,6.3l0.1,0.2l0.1,0.2L897.7,1310.1z M915.4,1341.3l-11.9,17.9l0.6,0.4l0.6,0.3
		L915.4,1341.3z M926.7,1388.6c-12.2,0-22.2-1-30.4-2.7l-9,42c11.9,2.5,25.1,3.7,39.4,3.7V1388.6z M897,1386
		c-7-1.7-14.6-5.3-22.8-11.1l-25,35c11.8,8.4,24.3,14.6,37.4,17.9L897,1386z M874.5,1375.1c-6.7-5-12.8-12-18-21.8l-38,20.1
		c7.7,14.6,17.8,26.9,30.4,36.2L874.5,1375.1z M856.8,1353.9c-5-10.2-9.5-24.7-13.3-44.1l-42.2,8.1c4.1,21.5,9.6,39.9,16.8,54.8
		L856.8,1353.9z M843.6,1310.2c-3.3-19.2-5.1-42.5-5.1-70h-43c0,29.1,1.8,55,5.7,77.3L843.6,1310.2z M838.6,1240.3V945.7h-43v294.5
		H838.6z M838.6,945.7c0-4.7-0.6-11.9-4.6-18.5c-5.1-8.3-13.7-12.7-22.8-12.7v43c-2,0-4.8-0.4-7.7-2c-3-1.6-5-3.8-6.2-5.8
		c-2.1-3.4-1.7-5.7-1.7-4H838.6z M811.1,914.6h-34.4v43h34.4V914.6z M776.7,914.6c1.2,0,3.4,0.3,5.6,1.7c2.2,1.3,3.2,2.9,3.6,3.6
		c0.3,0.6,0.1,0.5-0.1-0.9c-0.2-1.4-0.5-3.5-0.5-6.5h-43c0,9.1,1.1,19.4,5.8,28c2.5,4.7,6.3,9.2,11.7,12.5
		c5.4,3.3,11.3,4.6,16.9,4.6V914.6z M785.3,912.4V892h-43v20.4H785.3z M785.3,892c0-3,0.2-5.1,0.5-6.5c0.3-1.4,0.5-1.5,0.1-0.9
		c-0.4,0.7-1.5,2.3-3.6,3.6c-2.2,1.4-4.3,1.7-5.6,1.7v-43c-5.5,0-11.4,1.3-16.9,4.6c-5.4,3.3-9.2,7.8-11.7,12.5
		c-4.7,8.7-5.8,18.9-5.8,28H785.3z M776.7,889.8h34.4v-43h-34.4V889.8z M811.1,889.8c14.4,0,21.6-10.8,24.1-17
		c2.4-6,3.1-12.6,3.3-18.2l-43-1.6c-0.2,4.1-0.6,4.7-0.2,3.6c0.3-0.7,1.3-3,4-5.4c3.1-2.7,7.3-4.4,11.7-4.4L811.1,889.8z
		 M838.5,854.9l9.1-190.3l-42.9-2.1l-9.1,190.3L838.5,854.9z M847.7,664c0.1-3.8,0.4-6.6,0.7-8.7c0.4-2.1,0.7-2.9,0.7-2.8
		c-0.1,0.1-0.8,1.6-2.9,3c-2.3,1.6-4.7,2.2-6.6,2.2v-43c-6.2,0-12.5,1.7-18,5.6c-5.3,3.7-8.8,8.6-11.1,13.3
		c-4.3,8.8-5.6,19.4-5.8,29.6L847.7,664z M839.6,657.7h37.6v-43h-37.6V657.7z M877.2,657.7c-1.2,0-3.4-0.3-5.6-1.7
		c-2.2-1.3-3.2-2.9-3.6-3.6l37.7-20.6c-2.5-4.7-6.3-9.2-11.7-12.5c-5.4-3.3-11.3-4.6-16.9-4.6L877.2,657.7z M868.5,653.1
		c-0.6-1.1-0.8-1.7-0.7-1.5c0,0.1,0.2,0.7,0.3,1.7c0.3,2.2,0.6,5.5,0.6,10.2h43c0-6-0.3-11.6-1-16.6c-0.7-4.6-2-10.6-5.2-15.9
		L868.5,653.1z M868.6,663.6v190.3h43V663.6H868.6z M868.6,853.8c0,5.8,0.5,13,3.5,19.6c1.6,3.5,4.2,7.8,8.8,11.2
		c4.8,3.6,10.3,5.2,15.7,5.2v-43c3.2,0,6.9,1,10.1,3.4c2.9,2.2,4.2,4.6,4.7,5.7c0.5,1.1,0.5,1.6,0.4,1c-0.1-0.5-0.2-1.5-0.2-3.2
		H868.6z M896.6,889.8h69.3v-43h-69.3V889.8z M965.9,889.8c-0.6,0-2.1-0.1-4-1.1c-2-1-3.4-2.4-4.2-3.7l35.8-23.9
		c-6.6-9.9-17-14.4-27.6-14.4V889.8z M957.7,885.1c-0.8-1.1-1-1.9-1.1-2c0-0.1,0,0.1,0.2,0.9c0.3,1.5,0.5,4.1,0.5,8.1h43
		c0-5.4-0.3-10.6-1.1-15.3c-0.8-4.4-2.2-10.2-5.7-15.4L957.7,885.1z M957.3,892v20.4h43V892H957.3z M957.3,912.4
		c0,3.9-0.2,6.5-0.5,8.1c-0.1,0.7-0.2,1-0.2,0.9c0-0.1,0.3-0.9,1.1-2l35.8,23.9c3.5-5.2,5-11,5.7-15.4c0.8-4.7,1.1-10,1.1-15.3
		H957.3z M957.7,919.3c0.8-1.3,2.3-2.7,4.2-3.7c1.9-0.9,3.4-1.1,4-1.1v43c10.6,0,20.9-4.5,27.6-14.4L957.7,919.3z M965.9,914.6
		h-69.3v43h69.3V914.6z M896.6,914.6c-4.7,0-13.5,0.9-20.6,7.9l30.4,30.4c-2.5,2.5-5.1,3.7-6.9,4.2c-1.7,0.5-2.8,0.5-3,0.5V914.6z
		 M873.3,925.8c-3.3,4.9-4,10.1-4.2,11.9c-0.4,2.7-0.5,5.5-0.5,8.1h43c0-0.8,0-1.4,0-1.8c0-0.4,0-0.6,0-0.6c0,0-0.1,0.5-0.3,1.4
		c-0.1,0.4-0.3,1.1-0.7,1.9c-0.3,0.8-0.8,1.8-1.7,3.1L873.3,925.8z M868.6,945.7v294.5h43V945.7H868.6z M868.6,1240.3
		c0,30.9,2.5,56.7,8.5,76.1l41.1-12.5c-4.1-13.5-6.6-34.3-6.6-63.6L868.6,1240.3z M877.2,1316.8c3,9.1,6.3,17.2,10.2,24.1
		c3.8,6.7,8.9,13.5,16,18.3l23.9-35.8c0.7,0.4-0.4,0-2.5-3.8c-2-3.5-4.3-8.8-6.7-16.2L877.2,1316.8z M904.6,1359.9
		c11,6.4,23.6,8.8,36.6,8.8v-43c-7.8,0-12.4-1.5-15-3L904.6,1359.9z M941.2,1368.7h37.1v-43h-37.1V1368.7z M978.3,1368.7
		c0.5,0,0,0.1-1.1-0.3c-1.2-0.4-2.7-1.3-4-2.8c-2.5-2.8-1.9-4.9-1.9-2.3h43c0-8.2-1.8-18.3-9.1-26.5c-7.7-8.6-18.1-11.1-26.9-11.1
		V1368.7z M971.3,1363.3v28.5h43v-28.5H971.3z M971.3,1391.8c0,1.6-0.2,2.2-0.2,2.1c0-0.1,0.4-1.1,1.4-2.4c1.1-1.3,2.5-2.2,3.7-2.6
		c1.1-0.4,1.6-0.3,1-0.3v43c9.5,0,20.2-2.9,28-12.1c7.3-8.5,9-19,9-27.7H971.3z M977.2,1388.6h-50.5v43h50.5V1388.6z M1164.2,1460.6
		l-19.1-9.9l-0.1,0.2l-0.1,0.2L1164.2,1460.6z M1166.4,1341.3l20.9-5l0-0.2l0-0.2L1166.4,1341.3z M1053.5,900.1l-21.3,3l0.2,1.2
		l0.3,1.1L1053.5,900.1z M1130.4,895.2l-21.2,3.4l0.1,0.6l0.1,0.6L1130.4,895.2z M1211.5,1262.8l-21,4.6l0.3,1.4l0.5,1.3
		L1211.5,1262.8z M1216.4,1262.8l-21.2-3.9l-0.3,1.9v1.9H1216.4z M1283,896.8l21.1,3.9l0.1-0.5l0.1-0.5L1283,896.8z M1344.8,902.2
		l21.1,4.1l0.1-0.5l0.1-0.5L1344.8,902.2z M1248.1,1401.5l-21.1-4.1l0,0.1l0,0.1L1248.1,1401.5z M1209.9,1516.5l-17.4-12.7l-0.1,0.1
		l-0.1,0.1L1209.9,1516.5z M1149.7,1549.8v21.5h0.5l0.5,0L1149.7,1549.8z M1086.9,1528.3l-18.8,10.4l0.2,0.3l0.2,0.3L1086.9,1528.3z
		 M1137.4,1506.8c23.2,0,37.5-19.4,46.1-36.6L1145,1451c-3.5,7-6.4,10.6-8.2,12.3c-1.6,1.4-1.3,0.5,0.6,0.5V1506.8z M1183.3,1470.6
		c10.6-20.3,15.3-43.9,15.3-70.1h-43c0,21.1-3.8,37.6-10.5,50.2L1183.3,1470.6z M1198.6,1400.4c0-12.3-4.3-34.6-11.3-64.1l-41.8,10
		c7.3,30.7,10.2,47.8,10.2,54.1H1198.6z M1187.2,1336l-112.9-441.3l-41.7,10.7l112.9,441.3L1187.2,1336z M1074.8,897
		c-0.7-4.6-0.9-7.4-0.9-8.8h-43c0,4.4,0.5,9.5,1.3,14.9L1074.8,897z M1074,888.2c0-2.6,0.1-4.5,0.3-5.8c0.2-1.4,0.3-1.5,0.1-1
		c-0.2,0.5-1.2,2.7-3.8,4.8c-3,2.4-6.7,3.7-10.1,3.7v-43c-6.2,0-12.2,2-17.2,6.1c-4.6,3.8-7.2,8.5-8.8,12.3
		c-2.9,7.2-3.6,15.5-3.6,23H1074z M1060.5,889.8h51.1v-43h-51.1V889.8z M1111.6,889.8c-1,0-2.5-0.3-3.9-1.1
		c-1.3-0.7-1.8-1.5-1.7-1.4c0.1,0.2,0.7,1,1.3,3c0.7,1.9,1.3,4.6,1.9,8.2l42.5-6.8c-1.6-10.3-4.6-20.7-10.5-29.1
		c-6.6-9.4-16.7-15.9-29.6-15.9L1111.6,889.8z M1109.4,899.9l81.2,367.6l42-9.3l-81.2-367.6L1109.4,899.9z M1191.3,1270.2
		c0.8,2.1,1.6,4.2,2.4,6c0.4,0.8,1,2.2,2,3.8c0.4,0.7,1.5,2.3,3.1,3.9c0.7,0.7,6.2,6.4,15.4,6.4v-43c4.9,0,8.6,1.7,10.7,2.9
		c2.1,1.2,3.6,2.5,4.3,3.3c1.5,1.5,2.4,2.9,2.7,3.4c0.7,1,1,1.7,0.9,1.5c-0.1-0.2-0.4-1-1.1-2.9L1191.3,1270.2z M1214.2,1290.2
		c5.8,0,11.3-2.2,15.5-6c3.7-3.4,5.5-7.2,6.3-9.6c1.7-4.6,1.8-9.1,1.8-11.8h-43c0,1.3-0.2-0.3,0.8-2.9c0.5-1.4,1.9-4.5,5-7.4
		c3.6-3.3,8.5-5.3,13.6-5.3V1290.2z M1237.5,1266.7l66.6-366l-42.3-7.7l-66.6,366L1237.5,1266.7z M1304.3,899.6
		c0.5-3.9,1.2-7,1.8-9.2c0.7-2.3,1.2-3.3,1.4-3.6c0.2-0.3-0.3,0.6-1.8,1.5c-1.6,1-3.5,1.5-5,1.5v-43c-13.7,0-23.7,7.7-29.7,17.3
		c-5.3,8.6-8,19.2-9.4,29.9L1304.3,899.6z M1300.8,889.8h36.5v-43h-36.5V889.8z M1337.3,889.8c-3,0-6.4-1-9.3-3.2
		c-2.5-2-3.5-4-3.7-4.5c-0.2-0.5,0-0.2,0.2,1.3c0.2,1.4,0.4,3.5,0.4,6.4h43c0-8-0.8-16.9-4-24.5c-1.7-4-4.6-8.8-9.4-12.5
		c-5.1-4-11.2-5.9-17.3-5.9V889.8z M1324.9,889.8c0-0.5,0-1,0-1.1c0-0.2,0-0.3,0-0.3c0-0.1,0,0,0,0.2c0,0.4-0.1,1.1-0.3,2
		c-0.3,1.9-0.6,4.7-1.2,8.5l42.6,6.1c0.5-3.8,1-6.8,1.2-9c0.2-1.2,0.6-4.3,0.6-6.4H1324.9z M1323.7,898.1l-96.7,499.3l42.2,8.2
		l96.7-499.3L1323.7,898.1z M1226.9,1397.7c-10,55.2-22.1,89.3-34.4,106.2l34.7,25.3c18.5-25.4,31.9-68,41.9-123.9L1226.9,1397.7z
		 M1192.4,1504c-11.4,15.9-25.4,23.5-43.6,24.3l1.8,43c32-1.4,58-16,76.8-42.3L1192.4,1504z M1149.7,1528.3h-7v43h7V1528.3z
		 M1142.8,1528.3c-26.6,0-34.9-6.8-37.5-11.1l-36.9,22.1c14.7,24.4,43.6,31.9,74.3,31.9L1142.8,1528.3z M1105.7,1517.9
		c0.6,1.1,0.8,1.8,0.7,1.7c0-0.1-0.1-0.5-0.3-1.4c-0.3-1.9-0.5-4.9-0.5-9.1h-43c0,5.4,0.2,10.5,0.9,15.1c0.6,4.2,1.7,9.7,4.5,14.7
		L1105.7,1517.9z M1105.7,1509c0-5,0.2-8.9,0.6-12.1c0.4-3.2,0.8-5,1.1-5.7c0.3-0.9,0,0.5-1.8,2.2c-2.4,2.2-5.9,3.7-9.5,3.7v-43
		c-7.6,0-14.6,2.9-19.9,7.9c-4.8,4.6-7.6,10.1-9.2,14.7c-3.2,9.1-4.2,20.4-4.2,32.2H1105.7z M1096,1497.2c-1.1,0-2-0.1-2.3-0.1
		c-0.4,0-0.7-0.1-0.8-0.1c-0.2,0-0.2,0,0.1,0c0.5,0.1,1.4,0.3,2.8,0.7c2.8,0.7,6.9,1.9,12.4,3.5l12-41.3c-5.6-1.6-10.1-2.9-13.4-3.8
		c-1.6-0.4-3.1-0.8-4.4-1.1c-0.3-0.1-3.3-0.8-6.5-0.8V1497.2z M1108.3,1501.2c10.8,3.1,21.3,5.7,29.1,5.7v-43c0.1,0-1.2,0-4.6-0.8
		c-3.1-0.7-7.3-1.7-12.5-3.2L1108.3,1501.2z"/>
</g>
</svg>
